<svg width="379" height="113" viewBox="0 0 379 113" fill="none" xmlns="http://www.w3.org/2000/svg">
<path d="M4.67044 67.9128H0V59.7219H23.3522C32.9087 59.7219 39.591 66.5846 39.591 76.7679C39.591 86.9511 32.9087 94.0352 23.3522 94.0352H14.0832V112.114H4.67044V67.9128ZM21.6278 85.7705C26.9449 85.7705 29.9627 82.2285 29.9627 76.7679C29.9627 71.381 26.9449 67.9128 21.7715 67.9128H14.0832V85.7705H21.6278Z" fill="#DF1D3D"/>
<path d="M46.9931 84.0737C46.9931 82.9668 46.4183 82.4502 45.4123 82.4502H42.5382V74.4807H50.8732C54.1065 74.4807 55.7592 75.8828 55.7592 79.0558V81.2696C55.7592 82.6716 55.6155 83.6309 55.6155 83.6309H55.7592C57.4118 78.2441 61.7948 73.9642 67.3993 73.9642C68.1897 73.9642 69.052 74.1117 69.052 74.1117V83.3357C69.052 83.3357 68.1179 83.1882 66.8245 83.1882C62.9445 83.1882 58.4896 85.4757 56.837 91.0839C56.334 92.9287 56.0466 94.9949 56.0466 97.2086V112.115H46.9931V84.0737Z" fill="#DF1D3D"/>
<path d="M91.6882 73.5949C102.897 73.5949 111.807 81.7858 111.807 93.2973C111.807 104.883 102.897 113 91.6882 113C80.551 113 71.6412 104.883 71.6412 93.2973C71.6412 81.7858 80.551 73.5949 91.6882 73.5949ZM91.6882 105.03C97.6521 105.03 102.61 100.308 102.61 93.2973C102.61 86.3609 97.6521 81.5644 91.6882 81.5644C85.7963 81.5644 80.8384 86.3609 80.8384 93.2973C80.8384 100.308 85.7963 105.03 91.6882 105.03Z" fill="#DF1D3D"/>
<path d="M131.854 74.3328C141.626 74.3328 146.512 82.2285 146.512 91.1573C146.512 91.969 146.368 93.1497 146.368 93.1497H117.55C117.55 103.85 124.592 109.974 132.927 109.974C139.824 109.974 144.064 105.325 144.064 105.325L145.716 107.908C145.716 107.908 140.687 113 132.927 113C122.795 113 114.388 105.473 114.388 93.74C114.393 81.2692 122.656 74.3328 131.854 74.3328ZM143.35 90.2718C142.991 81.2692 137.745 77.2106 131.782 77.2106C125.171 77.2106 119.064 81.6382 117.77 90.2718H143.35Z" fill="#666B7B"/>
<path d="M153.842 79.6458C153.842 78.5389 153.267 78.0224 152.261 78.0224H149.172V75.2183H152.692C155.638 75.2183 156.86 76.4727 156.86 79.2768V81.343C156.86 83.0402 156.716 84.3685 156.716 84.3685H156.86C158.081 80.9002 162.967 74.3328 171.949 74.3328C181.29 74.3328 183.805 80.0147 183.805 88.7222V107.687C183.805 108.794 184.38 109.31 185.385 109.31H188.475V112.114H184.954C182.008 112.114 180.787 110.86 180.787 107.834V89.8291C180.787 83.4092 179.996 77.3582 171.949 77.3582C165.195 77.3582 159.231 82.2285 157.435 89.0911C157.004 90.6408 156.86 92.338 156.86 94.109V112.114H153.842V79.6458Z" fill="#666B7B"/>
<path d="M207.81 74.3328C217.582 74.3328 222.468 82.2285 222.468 91.1573C222.468 91.969 222.324 93.1497 222.324 93.1497H193.506C193.506 103.85 200.548 109.974 208.883 109.974C215.781 109.974 220.02 105.325 220.02 105.325L221.673 107.908C221.673 107.908 216.643 113 208.883 113C198.752 113 190.345 105.473 190.345 93.74C190.35 81.2692 198.613 74.3328 207.81 74.3328ZM219.306 90.2718C218.947 81.2692 213.702 77.2106 207.738 77.2106C201.128 77.2106 195.02 81.6382 193.727 90.2718H219.306Z" fill="#666B7B"/>
<path d="M229.796 79.6458C229.796 78.5389 229.221 78.0224 228.215 78.0224H225.125V75.2183H228.646C231.592 75.2183 232.814 76.4727 232.814 79.2768V81.343C232.814 83.0402 232.67 84.3685 232.67 84.3685H232.814C234.61 78.8341 240.861 74.3328 246.466 74.3328C253.651 74.3328 257.028 77.801 257.818 84.3685H257.962C259.974 78.8341 265.435 74.3328 271.614 74.3328C280.883 74.3328 283.614 79.9409 283.614 88.7222V107.687C283.614 108.794 284.188 109.31 285.194 109.31H288.284V112.114H284.763C281.817 112.114 280.596 110.86 280.596 107.834V89.8291C280.596 82.8926 279.231 77.2106 271.614 77.2106C265.65 77.2106 260.549 82.6712 258.968 88.427C258.465 90.1242 258.25 91.969 258.25 94.109V112.114H255.232V89.8291C255.232 83.483 254.37 77.2106 246.466 77.2106C240.071 77.2106 235.041 82.9664 233.388 89.0911C232.957 90.6408 232.814 92.338 232.814 94.109V112.114H229.796V79.6458Z" fill="#666B7B"/>
<path d="M299.674 50.9164C299.674 62.1623 308.565 71.283 319.506 71.283C319.506 65.6551 323.951 61.0997 329.421 61.0997H349.253C365.683 61.0997 379 47.4138 379 30.5499C379 13.6859 365.688 0 349.253 0H324.464C310.773 0 299.674 11.3984 299.674 25.4582V50.9164Z" fill="#CED0DD"/>
<path d="M343.609 23.343L333.277 17.115C332.798 16.8493 332.242 16.6919 331.648 16.6919C329.914 16.6919 328.506 17.966 328.506 19.5353V42.2878C328.506 43.8572 329.914 45.1313 331.648 45.1313C332.29 45.1313 332.884 44.9542 333.382 44.659H333.387L343.614 38.4851V23.343H343.609Z" fill="#DF1D3D"/>
<path d="M352.213 28.5329L345.271 24.3464V37.4814L352.213 33.2949V33.29C353.07 32.7833 353.635 31.9077 353.635 30.9139C353.635 29.9153 353.07 29.0396 352.213 28.5329Z" fill="#505462"/>
</svg>
